<svg xmlns="http://www.w3.org/2000/svg" version="1.1" xmlns:xlink="http://www.w3.org/1999/xlink" xmlns:svgjs="http://svgjs.dev/svgjs" width="1000" height="1125" viewBox="0 0 1000 1125"><g transform="matrix(1,0,0,1,1.7053025658242404e-13,0)"><svg viewBox="0 0 320 360" data-background-color="#ffffff" preserveAspectRatio="xMidYMid meet" height="1125" width="1000" xmlns="http://www.w3.org/2000/svg" xmlns:xlink="http://www.w3.org/1999/xlink"><g id="tight-bounds" transform="matrix(1,0,0,1,0,0)"><svg viewBox="0 0 320 360" height="360" width="320"><g><svg></svg></g><g><svg viewBox="0 0 320 360" height="360" width="320"><g><path d="M20.961 227.22l3.726 4.658-1.863-6.056c-0.466-2.795-3.726 0.466-1.863 1.398M25.153 224.425c1.397 2.329 2.795 4.658 2.795 6.987 0 3.261 2.795 4.658 5.123 5.589-3.261-3.726-5.124-13.974-7.918-12.576M204.017 26.929c7.918 0 15.371-0.932 23.756 0.931 20.495 5.124 37.729 15.371 49.374 29.811l32.606 52.169c1.397 13.042 4.192 27.482 3.726 43.319 3.261 0 2.795-4.658 6.521-5.59-3.726 9.316-5.59 20.961-6.521 34.469-2.329-7.453 0-18.632 0.466-24.687-3.261 5.124-5.124 1.397-5.124-0.932 0.466-3.726-1.397-3.261-2.795-4.658-5.124-4.658-8.384-9.782-12.11-17.7 2.329-6.055 2.795-14.905-4.658-19.563-2.329-1.397-5.124-3.726-6.521-7.453-1.863-5.124-5.124-11.179-4.193-19.097 0.466-2.329-6.987 5.124-11.179 1.863-18.166-12.576-36.332-27.016-58.224-39.127-11.645 0-20.029-4.192-24.221-9.316-3.726-4.658-0.932-10.713 4.658-11.179 3.261 0 6.987-0.932 9.782 0.932 0.466-1.863 2.329-4.192 4.657-4.192M157.904 16.215l0.932 0.466c4.658 0.932 6.987 7.453 12.11 5.124 0 3.261 0.466 6.521-0.466 8.85-1.397 3.726-5.59 3.726-8.85 3.726-31.208-1.863-49.374 11.179-68.471 22.358-5.124 3.261-10.713 5.59-14.906 9.782-20.029 18.632-41.921 35.866-47.045 70.335l-4.192 38.195c-0.466 4.192-5.124 8.384-4.192 13.508l3.26 22.824c-3.261-3.261-5.124 0.932-4.192 2.795 0.466 1.397 2.329 6.055 5.124 1.863 3.726 6.987 7.453 20.495 12.576 26.55 15.837 18.632 36.332 35.4 53.101 52.169 4.192-0.932 7.453-0.932 8.384-3.727 1.397 2.795-1.397 5.59-3.726 6.056 7.453 4.658 15.837 8.85 27.016 9.781 14.44 0.932 27.948 3.261 40.524 6.522 6.521-1.863 13.042-2.795 20.029-3.261 2.329 0 3.726-3.726 6.521-4.658l0.466-4.658c2.795 4.192 2.329-1.397 0.466-4.192 3.261 2.795 4.192 5.124 5.589 6.987 0-1.397 3.726-6.521 3.727-0.466l0.931-6.055c1.397-0.932 1.863 5.124 3.261 0.931 1.397-4.192 4.192-0.932 6.987-2.329-0.932 1.863-0.466 5.59 2.794 3.261l3.727-3.261c2.329 5.59 6.055 3.261 7.918 2.329 20.495-13.042 40.99-28.413 60.553-43.784l-0.466 6.055 2.329-7.453c2.329 2.329 4.192 0.466 5.124-0.931 2.795-4.658 6.521-9.316 12.577-13.508-7.453 20.029-16.303 35.866-27.482 48.908l-4.658 5.59c0 3.261-0.932 7.453-4.658 7.918-1.863 0.466-5.59-0.932-8.384 1.863-1.397 1.863 3.261 5.59-0.466 2.795-3.261-2.329-6.521 0-10.248 0.932-2.795 0.932 1.863 3.726 2.795 5.589 0.932 1.863 1.863 3.726 1.398 6.056l-5.124-5.59c-6.055 3.261-9.782 9.316-14.906 13.974-2.329 1.863-1.397 5.124-1.397 7.918-3.261 0-6.987-0.932-8.85 0.932-1.397 1.863-0.932 4.658-0.932 7.453-4.658-0.466-5.124-7.453-9.315-6.056-4.192 0.932-8.85 1.397-12.577 3.727 2.795 5.59-4.658 2.329-3.726 3.26-6.987-4.192-13.042-7.453-20.495-4.658-15.837-5.124-35.4-2.795-49.84-0.931 0-2.329 0.466-4.658-0.466-5.124-0.932 2.329-3.726 1.397-3.26 1.397-8.85-6.055-17.7-9.782-27.016-14.905-8.384 0.932-16.303-3.261-18.632-5.59-6.521-6.055-13.974-2.795-20.029-4.192-13.042-3.261-17.7-16.769-19.098-26.084-0.932-4.658-4.658-6.521-6.055-6.056-6.055-19.563-15.371-37.263-22.824-55.429-1.863-4.658-1.397-9.316-1.397-14.44 2.329 0.932 4.658 0.466 4.192-2.794-2.329-15.371-7.918-27.016-13.974-38.195 3.261-15.837 3.726-34.469 11.179-48.443 6.521-12.576 18.632-19.098 27.016-29.811 2.795-3.726 2.795-8.85 5.59-12.11 9.316-9.316 18.632-19.098 28.879-27.482 4.658-3.726 10.247 0 17.234-1.397 2.329-8.384 11.645-15.837 20.495-13.508 3.726 0.932 11.179-8.85 13.508-9.782 3.726-1.397 1.863 3.726 1.863 6.987 8.85-6.987 20.961-10.713 32.14-14.906" fill="#ff0000" fill-rule="nonzero" stroke="none" stroke-width="1" stroke-linecap="butt" stroke-linejoin="miter" stroke-miterlimit="10" stroke-dasharray="" stroke-dashoffset="0" font-family="none" font-weight="none" font-size="none" text-anchor="none" style="mix-blend-mode: normal" data-fill-palette-color="tertiary"></path></g><g transform="matrix(1,0,0,1,64,137.27748691099475)"><svg viewBox="0 0 192 85.44502617801048" height="85.44502617801048" width="192"><g><svg viewBox="0 0 192 85.44502617801048" height="85.44502617801048" width="192"><g><svg viewBox="0 0 192 85.44502617801048" height="85.44502617801048" width="192"><g><svg viewBox="0 0 192 85.44502617801048" height="85.44502617801048" width="192"><g id="textblocktransform"><svg viewBox="0 0 192 85.44502617801048" height="85.44502617801048" width="192" id="textblock"><g><svg viewBox="0 0 192 85.44502617801048" height="85.44502617801048" width="192"><g transform="matrix(1,0,0,1,0,0)"><svg width="192" viewBox="-1.3 -40.55 95.49 42.5" height="85.44502617801048" data-palette-color="#ff0000"><path d="M48.2-35.25L48.2-35.25Q53.5-32.1 53.5-27.65L53.5-27.65Q53.5-24.15 49.6-20.15L49.6-20.15Q47.35-17.8 44.28-16.1 41.2-14.4 38.2-13.65L38.2-13.65Q33-12.4 28.8-12.4L28.8-12.4Q27.9-12.4 27-12.45L27-12.45Q23.35-7.1 19.5-3.35L19.5-3.35Q13.85 1.95 7.05 1.95L7.05 1.95Q0.55 1.95-0.95-1.6L-0.95-1.6Q-1.3-2.45-1.3-3.58-1.3-4.7-0.15-6L-0.15-6Q1.65-8.05 4.9-8.05L4.9-8.05Q7-8.05 9.3-7.3L9.3-7.3Q10.15-7 9.9-6.65L9.9-6.65Q9.7-6.45 8.6-6.85 7.5-7.25 5.88-7.25 4.25-7.25 3.03-6.03 1.8-4.8 1.8-3.4L1.8-3.4Q1.8-2.85 2-2.3L2-2.3Q2.8 0.4 6.55 0.4L6.55 0.4Q12.15 0.4 17.55-4.8L17.55-4.8Q21.4-8.55 26.2-18.3L26.2-18.3Q28.05-21.95 30.8-26.43 33.55-30.9 36.4-34.1L36.4-34.1Q36.75-34.45 37.3-35L37.3-35Q38.35-36.2 39.05-36.9L39.05-36.9Q35.45-37.4 31.35-37.4 27.25-37.4 23.6-36.73 19.95-36.05 17.25-35.13 14.55-34.2 11.78-32.73 9-31.25 7.1-29L7.1-29Q4.6-26.15 4.6-23.05L4.6-23.05Q4.6-21.15 5.95-19.5L5.95-19.5Q7.4-17.75 9.68-17.75 11.95-17.75 14.08-19.5 16.2-21.25 17.1-23.8L17.1-23.8Q17.15-24.15 17.32-24.28 17.5-24.4 17.65-24.25 17.8-24.1 17.8-23.75L17.8-23.75Q17.75-20.5 15.28-18.63 12.8-16.75 9.8-16.75L9.8-16.75Q6.4-16.75 4.25-18.75 2.1-20.75 2.1-23.9L2.1-23.9Q2.1-26.8 3.65-29.13 5.2-31.45 7.35-32.9 9.5-34.35 12.3-35.5L12.3-35.5Q17.05-37.4 22.28-38.18 27.5-38.95 32.02-38.95 36.55-38.95 40.4-38.15L40.4-38.15Q42.2-39.55 43.55-40.05 44.9-40.55 45.08-40.55 45.25-40.55 45.3-40.5L45.3-40.5Q45.6-40.5 45.43-40.18 45.25-39.85 44.28-39.2 43.3-38.55 42.4-37.65L42.4-37.65Q45.6-36.8 48.2-35.25ZM28.4-13.5L28.4-13.5Q32.05-13.5 36.33-14.78 40.6-16.05 43.9-18.5L43.9-18.5Q50.3-23.35 50.3-28.5L50.3-28.5Q50.3-34.35 41.45-36.45L41.45-36.45Q38.65-32.55 34.2-24.6 29.75-16.65 27.7-13.5L27.7-13.5Q28.05-13.5 28.4-13.5ZM59.85-13.55Q58.95-12.65 57.3-9.47 55.65-6.3 55.32-4.73 55-3.15 55-2.18 55-1.2 55.75-1.2L55.75-1.2Q56.7-1.2 58.1-2.95L58.1-2.95Q60.15-5.5 62.15-9.6L62.15-9.6Q62.35-10.05 62.6-10.1L62.6-10.1Q63-10.25 63-9.8L63-9.8Q63-9.55 62.85-9.2L62.85-9.2Q58.25 0.1 55.1 0.1L55.1 0.1Q53.65 0.1 52.75-1.3L52.75-1.3Q52.3-2.05 52.3-3.3 52.3-4.55 52.8-6.35L52.8-6.35Q48.8 0.1 45.9 0.1L45.9 0.1Q45.1 0.1 44.45-0.4L44.45-0.4Q42.95-1.45 42.95-4L42.95-4Q42.95-8.9 47.2-13.95L47.2-13.95Q49.6-16.75 53.1-17.6L53.1-17.6Q54.05-17.85 54.9-17.85L54.9-17.85Q57.2-17.85 58.8-16.25L58.8-16.25Q59.3-15.7 59.1-15.2 58.9-14.7 58.25-14.8L58.25-14.8Q57.7-16.6 55.85-16.6L55.85-16.6Q53.7-16.6 50.55-13.2L50.55-13.2Q48.75-11.2 47.2-8.5L47.2-8.5Q45.25-5.25 45.25-3.3 45.25-1.35 46.5-1.35L46.5-1.35Q49.5-1.35 54.35-10.55L54.35-10.55Q55.3-12.4 55.95-13.08 56.6-13.75 57.6-13.75L57.6-13.75Q57.8-13.75 58.62-13.6 59.45-13.45 59.85-13.55L59.85-13.55ZM60.4-2.9L60.4-2.9Q60.4-5.05 62.25-8.1L62.25-8.1Q61.45-8.1 61.8-8.9L61.8-8.9 62.7-10.65Q64.39-13.9 65.5-16.15L65.5-16.15Q66-17.2 67.45-17.2L67.45-17.2 70.5-17.2Q68.7-15.9 66.87-12.18 65.05-8.45 64.05-6.33 63.05-4.2 63.05-3.1 63.05-2 63.42-1.55 63.8-1.1 64.45-1.1L64.45-1.1Q65.39-1.1 67.09-3.1L67.09-3.1Q69.75-6.2 74.55-16.15L74.55-16.15Q75.09-17.2 76.5-17.2L76.5-17.2 79.2-17.2Q78.09-16.35 77.47-15.45 76.84-14.55 75.75-12.25L75.75-12.25Q72.75-6.25 72.4-4.3L72.4-4.3Q72.25-3.6 72.25-3L72.25-3Q72.25-1.4 73.34-1.3L73.34-1.3Q76.05-1.3 80-9.65L80-9.65Q80.3-10.35 80.59-10.2 80.9-10.05 80.9-9.8 80.9-9.55 80.45-8.65 80-7.75 79.57-6.9 79.15-6.05 78.27-4.58 77.4-3.1 76.65-2.25L76.65-2.25Q74.7-0.05 72.82-0.05 70.95-0.05 70.25-1.7L70.25-1.7Q69.95-2.45 69.95-3.6 69.95-4.75 70.45-6.45L70.45-6.45Q66.8-0.05 63.7-0.05L63.7-0.05Q61-0.05 60.55-2.3L60.55-2.3Q60.4-2.55 60.4-2.9ZM82.74-9.65Q82.69-9.45 82.29-8.28 81.89-7.1 81.62-6.03 81.34-4.95 81.34-3.88 81.34-2.8 81.84-1.88 82.34-0.95 83.44-0.95L83.44-0.95Q85.24-0.95 86.94-3.38 88.64-5.8 90.54-9.55L90.54-9.55Q90.94-10.25 91.29-10.1L91.29-10.1Q91.54-9.9 91.39-9.58 91.24-9.25 90.77-8.18 90.29-7.1 90.07-6.68 89.84-6.25 89.27-5.18 88.69-4.1 88.27-3.58 87.84-3.05 87.12-2.23 86.39-1.4 85.74-1L85.74-1Q83.99 0.1 82.44 0.1 80.89 0.1 80.04-0.58 79.19-1.25 79.02-2.02 78.84-2.8 78.84-3.4 78.84-4 78.89-4.95L78.89-4.95Q79.04-6.55 79.52-8.05 79.99-9.55 80.04-9.75L80.04-9.75Q81.19-13.9 83.32-18.8 85.44-23.7 86.92-26.18 88.39-28.65 89.24-29.55L89.24-29.55Q90.94-31.35 92.59-31.35L92.59-31.35Q93.74-31.35 94.14-29.7L94.14-29.7Q94.19-29.4 94.19-28.95L94.19-28.95Q94.19-27.25 92.99-24.65L92.99-24.65Q88.69-15.1 82.74-9.65L82.74-9.65ZM83.14-11.25Q85.69-13.85 88.19-17.8 90.69-21.75 91.87-24.53 93.04-27.3 93.04-28.3 93.04-29.3 92.69-29.3L92.69-29.3Q92.19-29.3 90.79-27.33 89.39-25.35 87.02-20.23 84.64-15.1 83.14-11.25L83.14-11.25Z" opacity="1" transform="matrix(1,0,0,1,0,0)" fill="#ff0000" class="undefined-text-0" data-fill-palette-color="primary" id="text-0"></path></svg></g></svg></g></svg></g></svg></g><g></g></svg></g></svg></g></svg></g></svg></g><defs></defs></svg><rect width="320" height="360" fill="none" stroke="none" visibility="hidden"></rect></g></svg></g></svg>